<svg width="849" height="868" viewBox="0 0 849 868" fill="none" xmlns="http://www.w3.org/2000/svg">
<path d="M435.867 61.7335L424.5 55.931L413.133 61.7335L65.4241 239.233L51.7908 246.193V261.5V616.5V631.807L65.4241 638.767L413.133 816.267L424.5 822.069L435.867 816.267L783.576 638.767L797.209 631.807V616.5V261.5V246.193L783.576 239.233L435.867 61.7335Z" stroke="black" stroke-width="50"/>
<path d="M283.5 229L121 355V414.5H176.5V382.5L229.5 344V364L121 547L283.5 651V509.5H229.5V547L198.5 526.5L283.5 380V229Z" fill="black"/>
<path d="M371 164L319 204.5L318.5 665.5L371 697.5V466H398L471 524V704L527 671V490L460.5 444.5V433.5L527 385V203L470.5 161V350.5L398 405H371V164Z" fill="black"/>
<path fill-rule="evenodd" clip-rule="evenodd" d="M561.5 229L726 355.5V555.5L671 587V474H616.5V619L562 649.5L561.5 229ZM672 412.5H616V340L672 381.5V412.5Z" fill="black"/>
</svg>
