<svg width="3693" height="868" viewBox="0 0 3693 868" fill="none" xmlns="http://www.w3.org/2000/svg">
<path d="M435.867 61.7335L424.5 55.931L413.133 61.7335L65.4241 239.233L51.7908 246.193V261.5V616.5V631.807L65.4241 638.767L413.133 816.267L424.5 822.069L435.867 816.267L783.576 638.767L797.209 631.807V616.5V261.5V246.193L783.576 239.233L435.867 61.7335Z" stroke="white" stroke-width="50"/>
<path d="M283.5 229L121 355V414.5H176.5V382.5L229.5 344V364L121 547L283.5 651V509.5H229.5V547L198.5 526.5L283.5 380V229Z" fill="white"/>
<path d="M371 164L319 204.5L318.5 665.5L371 697.5V466H398L471 524V704L527 671V490L460.5 444.5V433.5L527 385V203L470.5 161V350.5L398 405H371V164Z" fill="white"/>
<path fill-rule="evenodd" clip-rule="evenodd" d="M561.5 229L726 355.5V555.5L671 587V474H616.5V619L562 649.5L561.5 229ZM672 412.5H616V340L672 381.5V412.5Z" fill="white"/>
<path d="M923.029 313.1H1166.95C1187.31 313.1 1196.73 322.148 1196.73 341.752V376.059C1196.73 394.532 1192.58 399.81 1177.88 407.727L978.448 512.91C975.809 514.418 975.055 515.926 975.055 518.565V521.204C975.055 523.466 976.186 524.597 978.825 524.597H1185.8C1191.45 524.597 1194.47 527.236 1194.47 532.891V568.706C1194.47 574.361 1191.45 577 1185.8 577H941.879C921.144 577 912.096 567.952 912.096 548.725V514.418C912.096 495.945 915.112 490.667 929.815 482.75L1128.49 377.19C1131.13 375.682 1131.89 374.174 1131.89 371.535V368.896C1131.89 366.634 1130.38 365.503 1128.12 365.503H923.029C917.374 365.503 914.358 362.864 914.358 357.209V321.394C914.358 315.739 917.374 313.1 923.029 313.1ZM1249.33 313.1H1290.04C1295.7 313.1 1298.34 315.739 1298.34 321.394V421.676H1351.5C1375.25 421.676 1382.41 419.037 1393.34 404.711L1458.19 318.001C1460.83 314.608 1462.33 313.1 1469.12 313.1H1515.87C1522.28 313.1 1523.41 318.755 1520.77 322.148L1447.63 416.775C1438.96 428.085 1432.17 436.002 1425.01 442.034C1435.19 448.443 1444.24 457.114 1453.66 469.178L1530.95 567.198C1532.83 569.837 1533.59 577 1526.05 577H1477.79C1471.38 577 1469.87 575.492 1467.23 572.099L1397.87 482.373C1387.69 469.178 1379.02 465.408 1355.64 465.408H1298.34V568.706C1298.34 574.361 1295.7 577 1290.04 577H1249.33C1243.67 577 1240.66 574.361 1240.66 568.706V321.394C1240.66 315.739 1243.67 313.1 1249.33 313.1ZM1707.58 313.1H1729.82C1749.05 313.1 1760.73 319.132 1773.18 341.752L1897.96 568.329C1900.6 573.23 1899.47 577 1893.44 577H1845.56C1840.66 577 1838.77 575.869 1836.89 572.099L1810.12 523.466H1632.93L1606.92 572.099C1605.03 575.869 1602.77 577 1598.25 577H1549.24C1542.83 577 1541.7 573.23 1544.34 568.329L1667.99 341.752C1680.43 319.132 1691.74 313.1 1707.58 313.1ZM1715.87 369.273L1656.68 479.734H1786.37L1726.43 369.273C1725.3 367.388 1724.17 366.634 1722.28 366.634H1720.02C1718.13 366.634 1717 367.388 1715.87 369.273ZM1882.46 370.027H1918.28V320.263C1918.28 314.608 1921.29 311.969 1926.57 311.969H1963.89C1969.17 311.969 1972.19 314.608 1972.19 320.263V370.027H2038.16C2043.06 370.027 2044.95 372.289 2044.95 376.813V407.727C2044.95 412.251 2043.06 414.513 2038.16 414.513H1972.19V501.977C1972.19 522.712 1978.97 532.514 2003.86 532.514H2040.42C2045.33 532.514 2047.21 534.776 2047.21 539.3V570.214C2047.21 574.738 2045.33 577 2040.42 577H1994.81C1934.49 577 1918.28 555.511 1918.28 501.977V414.513H1882.46C1877.94 414.513 1875.68 412.251 1875.68 407.727V376.813C1875.68 372.289 1877.94 370.027 1882.46 370.027ZM2074.64 370.027H2110.46V320.263C2110.46 314.608 2113.47 311.969 2118.75 311.969H2156.08C2161.35 311.969 2164.37 314.608 2164.37 320.263V370.027H2230.34C2235.25 370.027 2237.13 372.289 2237.13 376.813V407.727C2237.13 412.251 2235.25 414.513 2230.34 414.513H2164.37V501.977C2164.37 522.712 2171.16 532.514 2196.04 532.514H2232.61C2237.51 532.514 2239.39 534.776 2239.39 539.3V570.214C2239.39 574.738 2237.51 577 2232.61 577H2186.99C2126.67 577 2110.46 555.511 2110.46 501.977V414.513H2074.64C2070.12 414.513 2067.86 412.251 2067.86 407.727V376.813C2067.86 372.289 2070.12 370.027 2074.64 370.027ZM2351.45 370.027H2461.91C2513.56 370.027 2527.13 386.238 2527.13 431.855V467.67C2527.13 483.881 2520.35 489.159 2505.64 489.159H2315.26V498.207C2315.26 521.958 2323.93 531.76 2356.73 531.76H2513.94C2518.46 531.76 2520.72 534.022 2520.72 538.546V570.214C2520.72 574.738 2518.46 577 2513.94 577H2351.45C2283.59 577 2261.72 555.511 2261.72 500.846V446.558C2261.72 391.893 2283.59 370.027 2351.45 370.027ZM2315.26 445.427V455.606H2467.94C2472.47 455.606 2474.35 454.098 2474.35 449.197V433.363C2474.35 417.906 2468.7 411.874 2451.35 411.874H2356.73C2323.93 411.874 2315.26 421.299 2315.26 445.427ZM2622.16 370.027H2806.14C2810.66 370.027 2812.92 372.289 2812.92 376.813V406.973C2812.92 411.497 2810.66 413.759 2806.14 413.759H2636.11C2620.65 413.759 2615.37 419.791 2615.37 430.724V436.379C2615.37 446.558 2620.65 452.59 2636.11 452.59H2763.16C2805.38 452.59 2821.97 470.686 2821.97 503.108V524.22C2821.97 557.396 2807.27 577 2762.78 577H2569.76C2565.23 577 2562.97 574.738 2562.97 570.214V540.054C2562.97 535.53 2565.23 533.268 2569.76 533.268H2748.45C2763.91 533.268 2769.57 527.99 2769.57 515.172V504.993C2769.57 495.191 2763.91 489.159 2748.45 489.159H2621.78C2579.56 489.159 2562.97 471.44 2562.97 438.264V421.676C2562.97 390.385 2577.67 370.027 2622.16 370.027ZM2852.21 370.027H2888.02V320.263C2888.02 314.608 2891.04 311.969 2896.31 311.969H2933.64C2938.92 311.969 2941.93 314.608 2941.93 320.263V370.027H3007.91C3012.81 370.027 3014.69 372.289 3014.69 376.813V407.727C3014.69 412.251 3012.81 414.513 3007.91 414.513H2941.93V501.977C2941.93 522.712 2948.72 532.514 2973.6 532.514H3010.17C3015.07 532.514 3016.95 534.776 3016.95 539.3V570.214C3016.95 574.738 3015.07 577 3010.17 577H2964.55C2904.23 577 2888.02 555.511 2888.02 501.977V414.513H2852.21C2847.68 414.513 2845.42 412.251 2845.42 407.727V376.813C2845.42 372.289 2847.68 370.027 2852.21 370.027ZM3056.25 370.027H3093.2C3098.85 370.027 3101.49 373.043 3101.49 378.698V568.706C3101.49 574.361 3098.85 577 3093.2 577H3056.25C3050.6 577 3047.96 574.361 3047.96 568.706V378.698C3047.96 373.043 3050.6 370.027 3056.25 370.027ZM3056.25 293.496H3093.2C3098.85 293.496 3101.49 296.135 3101.49 301.79V337.605C3101.49 343.26 3098.85 346.276 3093.2 346.276H3056.25C3050.6 346.276 3047.58 343.26 3047.58 337.605V301.79C3047.58 296.135 3050.6 293.496 3056.25 293.496ZM3138.64 370.027H3174.83V362.11C3174.83 308.953 3190.66 287.087 3250.98 287.087H3296.6C3301.5 287.087 3303.39 289.349 3303.39 293.873V324.787C3303.39 329.311 3301.5 331.573 3296.6 331.573H3260.03C3235.53 331.573 3228.36 341.375 3228.36 362.11V370.027H3294.34C3299.24 370.027 3301.12 372.289 3301.12 376.813V407.727C3301.12 412.251 3299.24 414.513 3294.34 414.513H3228.36V568.706C3228.36 574.361 3225.72 577 3220.07 577H3183.12C3177.47 577 3174.83 574.361 3174.83 568.706V414.513H3138.64C3134.11 414.513 3131.85 412.251 3131.85 407.727V376.813C3131.85 372.289 3134.11 370.027 3138.64 370.027ZM3564.36 370.027H3606.58C3611.86 370.027 3614.12 374.551 3611.48 379.452L3466.72 634.681C3456.91 652.023 3439.57 660.317 3407.15 660.317H3380.76C3376.24 660.317 3373.97 658.055 3373.97 653.531V622.617C3373.97 618.093 3376.24 615.831 3380.76 615.831H3403C3413.18 615.831 3418.84 613.192 3422.23 607.16L3442.59 571.345C3430.15 570.214 3424.49 565.69 3418.46 555.134L3316.67 379.452C3314.03 374.551 3316.29 370.027 3321.57 370.027H3364.93C3369.45 370.027 3372.09 371.535 3373.97 375.305L3457.67 520.45C3461.81 527.236 3463.32 529.121 3466.72 529.121L3555.31 375.305C3557.2 371.535 3559.83 370.027 3564.36 370.027Z" fill="white"/>
</svg>
