<svg width="774" height="805" viewBox="0 0 774 805" fill="none" xmlns="http://www.w3.org/2000/svg">
<g clip-path="url(#clip0_1_20)">
<path d="M393.32 33.6401L386.5 30.1586L379.68 33.6401L31.9708 211.14L23.7908 215.316V224.5V579.5V588.684L31.9708 592.86L379.68 770.36L386.5 773.841L393.32 770.36L741.029 592.86L749.209 588.684V579.5V224.5V215.316L741.029 211.14L393.32 33.6401Z" stroke="white" stroke-width="30"/>
<path d="M245.5 192L83 318V377.5H138.5V345.5L191.5 307V327L83 510L245.5 614V472.5H191.5V510L160.5 489.5L245.5 343V192Z" fill="white"/>
<path d="M333 127L281 167.5L280.5 628.5L333 660.5V429H360L433 487V667L489 634V453L422.5 407.5V396.5L489 348V166L432.5 124V313.5L360 368H333V127Z" fill="white"/>
<path fill-rule="evenodd" clip-rule="evenodd" d="M523.5 192L688 318.5V518.5L633 550V437H578.5V582L524 612.5L523.5 192ZM634 375.5H578V303L634 344.5V375.5Z" fill="white"/>
</g>
<defs>
<clipPath id="clip0_1_20">
<rect width="774" height="805" fill="white"/>
</clipPath>
</defs>
</svg>
